<svg id="Capa_2" data-name="Capa 2" xmlns="http://www.w3.org/2000/svg" viewBox="0 0 1009 1009"><defs><style>.cls-1{fill:#fcdd09;}.cls-2{fill:#999;}.cls-3{fill:#078930;}.cls-4{fill:#0f47af;}.cls-5{fill:none;stroke:#000;stroke-miterlimit:10;stroke-width:9px;}</style></defs><path class="cls-1" d="M900,200,750,500h-1.92c0-137-111.13-248.15-248.19-248.15S251.72,363,251.7,500H250L100,200C191.21,78.54,336.43,0,500,0S808.8,78.55,900,200Z" transform="translate(4.5 4.5)"/><path class="cls-1" d="M748.08,500H251.7c0-137,111.13-248.15,248.19-248.15S748.06,363,748.08,500Z" transform="translate(4.5 4.5)"/><polygon class="cls-1" points="586.1 647.64 545.3 687.41 554.93 743.57 504.5 717.06 454.07 743.57 463.7 687.41 422.9 647.64 479.28 639.45 504.5 588.35 529.72 639.45 586.1 647.64"/><path class="cls-2" d="M748.08,500H750L500,1000,250,500H748.08ZM540.8,682.91l40.8-39.77L525.22,635,500,583.85,474.78,635l-56.38,8.19,40.8,39.77-9.63,56.16L500,712.56l50.43,26.51Z" transform="translate(4.5 4.5)"/><path class="cls-3" d="M900,200a497.72,497.72,0,0,1,100,300c0,276.14-223.86,500-500,500L750,500Z" transform="translate(4.5 4.5)"/><path class="cls-4" d="M250,500l250,500C223.86,1000,0,776.14,0,500A497.75,497.75,0,0,1,100,200Z" transform="translate(4.5 4.5)"/><path class="cls-5" d="M900,200a497.72,497.72,0,0,1,100,300c0,276.14-223.86,500-500,500S0,776.14,0,500A497.75,497.75,0,0,1,100,200C191.21,78.54,336.43,0,500,0S808.8,78.55,900,200Z" transform="translate(4.5 4.5)"/><polyline class="cls-5" points="504.5 1004.5 254.5 504.5 104.49 204.47"/><polyline class="cls-5" points="504.5 1004.5 754.5 504.5 904.51 204.48"/><polyline class="cls-5" points="254.5 504.5 256.2 504.5 752.58 504.5 754.5 504.5"/><polygon class="cls-5" points="504.5 588.35 529.72 639.45 586.1 647.64 545.3 687.41 554.93 743.57 504.5 717.06 454.07 743.57 463.7 687.41 422.9 647.64 479.28 639.45 504.5 588.35"/><path class="cls-5" d="M748.08,500v0c0-137-111.13-248.15-248.19-248.15S251.72,363,251.7,500v0" transform="translate(4.5 4.5)"/></svg>